# xmcd
#
# Track frame offsets:
#	150
#	22350
#	38190
#	52500
#	65237
#	76357
#	91700
#	103072
#	126200
#	148195
#
# Disc length: 2092
#
# Revision: 2
# Processed by: cddbd v1.5.1PL0 Copyright (c) Steve Scherf et al.
# Submitted via: audiograbber 1.81.02
# Normalized: r1:DSETVAR1
#
DISCID=88082a0a
DTITLE=Various Artist - Masters Of The Blues
DYEAR=1900
DGENRE=Blues
TTITLE0=B B King - The Thrill Is Gone
TTITLE1=Screamin' Jay Hawkins - I Put A Spell On You
TTITLE2=Buddy Guy - Broken Hearted Blues
TTITLE3=Ray Charles - Rockin' Chair Blues
TTITLE4=B B King - Catfish Blues
TTITLE5=Big Joe Turner - Honey Hush
TTITLE6=Buddy Guy and Junior Wells - Messin' With The Kid
TTITLE7=Brownie McGhee and Sonny Terry - Drinkin' The Blues
TTITLE8=John Mayall - Baby What You Want Me To Do
TTITLE9=Delbert McClinton - Singin' The Blues
EXTD=
EXTT0=
EXTT1=
EXTT2=
EXTT3=
EXTT4=
EXTT5=
EXTT6=
EXTT7=
EXTT8=
EXTT9=
PLAYORDER=
